<svg xmlns="http://www.w3.org/2000/svg" viewBox="0 0 400 400" width="400" height="400" xmlns:c2pa="http://c2pa.org/manifest"><metadata><c2pa:manifest>AAAWgmp1bWIAAAAeanVtZGMycGEAEQAQgAAAqgA4m3EDYzJwYQAAABZcanVtYgAAAEdqdW1kYzJtYQARABCAAACqADibcQN1cm46YzJwYTpjNmU2YjEwMC01ZTQzLTQxNGItYWZkZi1jN2Y4YmI0M2RiODMAAAADl2p1bWIAAAApanVtZGMyYXMAEQAQgAAAqgA4m3EDYzJwYS5hc3NlcnRpb25zAAAAALxqdW1iAAAARGp1bWRjYm9yABEAEIAAAKoAOJtxE2MycGEuaW5ncmVkaWVudC52MwAAAAAYYzJzaIlS6ZxzABm2xjBdVTNEIwkAAABwY2JvcqNpZGM6Zm9ybWF0bWltYWdlL3N2Zyt4bWxqaW5zdGFuY2VJRHgseG1wOmlpZDpkMWM3MjdhMy03MjNmLTQ4MzAtYWFkMi1jYzkxYmZjNmEyMjVscmVsYXRpb25zaGlwaHBhcmVudE9mAAAB4mp1bWIAAABBanVtZGNib3IAEQAQgAAAqgA4m3ETYzJwYS5hY3Rpb25zLnYyAAAAABhjMnNoZ8X+Ae71pr9aiTasJi28kwAAAZljYm9yomdhY3Rpb25zgqJmYWN0aW9ua2MycGEub3BlbmVkanBhcmFtZXRlcnOha2luZ3JlZGllbnRzgaJjdXJseC1zZWxmI2p1bWJmPWMycGEuYXNzZXJ0aW9ucy9jMnBhLmluZ3JlZGllbnQudjNkaGFzaFggw2+8cuL4h/zLCp3WmTgHZeJnpZkARK7A2wjxFdbNMUWkZmFjdGlvbngdY29tLmFudGhyb3BpYy5jbGF1ZGUucHJvdmlkZWRqcGFyYW1ldGVyc6F4H2NvbS5hbnRocm9waWMub3JpZ2luLWNvbmZpZGVuY2VndW5rbm93bmtkZXNjcmlwdGlvbnhmQ2xhdWRlIHByb3ZpZGVkIHRoaXMgZmlsZSBhdCB0aGUgcmVxdWVzdCBvZiBhIHVzZXIgYW5kIG1heSBoYXZlIGNyZWF0ZWQgb3IgbW9kaWZpZWQgdGhlIGZpbGUgY29udGVudHMubXNvZnR3YXJlQWdlbnShZG5hbWVmQ2xhdWRlcmFsbEFjdGlvbnNJbmNsdWRlZPUAAADIanVtYgAAAEBqdW1kY2JvcgARABCAAACqADibcRNjMnBhLmhhc2guZGF0YQAAAAAYYzJzaIwgswkfqUyzhTT9xk6Y1FwAAACAY2JvcqVjYWxnZnNoYTI1NmNwYWRNAAAAAAAAAAAAAAAAAGRoYXNoWCAZGZaf4OgZ924VP5xHgddtU4oEwKZZ5PgS99Tv3nFH72RuYW1lbmp1bWJmIG1hbmlmZXN0amV4Y2x1c2lvbnOBomVzdGFydBiWZmxlbmd0aBkeBAAAAj5qdW1iAAAAJ2p1bWRjMmNsABEAEIAAAKoAOJtxA2MycGEuY2xhaW0udjIAAAACD2Nib3KlY2FsZ2ZzaGEyNTZpc2lnbmF0dXJleE1zZWxmI2p1bWJmPS9jMnBhL3VybjpjMnBhOmM2ZTZiMTAwLTVlNDMtNDE0Yi1hZmRmLWM3ZjhiYjQzZGI4My9jMnBhLnNpZ25hdHVyZWppbnN0YW5jZUlEeCx4bXA6aWlkOjUwODI2MTljLTFhYmEtNDk2Yy1iMTVjLTkxZWY2MTMzZDFhOXJjcmVhdGVkX2Fzc2VydGlvbnODomN1cmx4LXNlbGYjanVtYmY9YzJwYS5hc3NlcnRpb25zL2MycGEuaW5ncmVkaWVudC52M2RoYXNoWCDDb7xy4viH/MsKndaZOAdl4melmQBErsDbCPEV1s0xRaJjdXJseCpzZWxmI2p1bWJmPWMycGEuYXNzZXJ0aW9ucy9jMnBhLmFjdGlvbnMudjJkaGFzaFgg2VcnX3u4wRtbDw8rcOigABxqUL8j2T/6FRChQvWfatCiY3VybHgpc2VsZiNqdW1iZj1jMnBhLmFzc2VydGlvbnMvYzJwYS5oYXNoLmRhdGFkaGFzaFgg3ds0UyM2xxPG6RmBXxN01Zp6e+l6bFF2/nQmsQNsdjN0Y2xhaW1fZ2VuZXJhdG9yX2luZm+jZG5hbWVvQW50aHJvcGljIEZpbGVzZ3ZlcnNpb25lMS4wLjBrc3BlY1ZlcnNpb25lMi40LjAAABA4anVtYgAAAChqdW1kYzJjcwARABCAAACqADibcQNjMnBhLnNpZ25hdHVyZQAAABAIY2JvctKEWQISogEmGCFZAgowggIGMIIBjaADAgECAhRA5aAK7sI50L64g/oGQgU9Z1UTADAKBggqhkjOPQQDAzBJMRcwFQYDVQQKEw5BbnRocm9waWMsIFBCQzEuMCwGA1UEAxMlQW50aHJvcGljIENvbnRlbnQgQ3JlZGVudGlhbHMgUm9vdCBDQTAeFw0yNjA4MDcxODQzNTZaFw0yODA4MDYxOTQzNTZaMEQxFzAVBgNVBAoTDkFudGhyb3BpYywgUEJDMSkwJwYDVQQDEyBBbnRocm9waWMgQ2xhdWRlIENvbnRlbnQgU2lnbmluZzBZMBMGByqGSM49AgEGCCqGSM49AwEHA0IABJh6CmvLUBgFFNU0vUKlOVtE6djd17L5SuwX0LemFisBM3dkd/3cyjxFA3Qo5S46fX0/ihY0VZ7mfb9KF703t5OjWDBWMA4GA1UdDwEB/wQEAwIHgDAVBgNVHSUEDjAMBgorBgEEAYPoXgIBMAwGA1UdEwEB/wQCMAAwHwYDVR0jBBgwFoAUzlHiBIFOZFsj+OPEz5o+nMHXXMIwCgYIKoZIzj0EAwMDZwAwZAIwMXMdFJ4BetLLVY7ORuE9noqbbAZOZn/aArXyTwFAZfKrPzxF2vPoJNf1+UCdg1XGAjBwX1zd9WGqYkqmL5SFqw1QySjr1zJfpJM9+1rdDwSPLMOPOjKuiXjoU/pUUeG9RwmhY3BhZFkNngAAAAAAAAAAAAAAAAAAAAAAAAAAAAAAAAAAAAAAAAAAAAAAAAAAAAAAAAAAAAAAAAAAAAAAAAAAAAAAAAAAAAAAAAAAAAAAAAAAAAAAAAAAAAAAAAAAAAAAAAAAAAAAAAAAAAAAAAAAAAAAAAAAAAAAAAAAAAAAAAAAAAAAAAAAAAAAAAAAAAAAAAAAAAAAAAAAAAAAAAAAAAAAAAAAAAAAAAAAAAAAAAAAAAAAAAAAAAAAAAAAAAAAAAAAAAAAAAAAAAAAAAAAAAAAAAAAAAAAAAAAAAAAAAAAAAAAAAAAAAAAAAAAAAAAAAAAAAAAAAAAAAAAAAAAAAAAAAAAAAAAAAAAAAAAAAAAAAAAAAAAAAAAAAAAAAAAAAAAAAAAAAAAAAAAAAAAAAAAAAAAAAAAAAAAAAAAAAAAAAAAAAAAAAAAAAAAAAAAAAAAAAAAAAAAAAAAAAAAAAAAAAAAAAAAAAAAAAAAAAAAAAAAAAAAAAAAAAAAAAAAAAAAAAAAAAAAAAAAAAAAAAAAAAAAAAAAAAAAAAAAAAAAAAAAAAAAAAAAAAAAAAAAAAAAAAAAAAAAAAAAAAAAAAAAAAAAAAAAAAAAAAAAAAAAAAAAAAAAAAAAAAAAAAAAAAAAAAAAAAAAAAAAAAAAAAAAAAAAAAAAAAAAAAAAAAAAAAAAAAAAAAAAAAAAAAAAAAAAAAAAAAAAAAAAAAAAAAAAAAAAAAAAAAAAAAAAAAAAAAAAAAAAAAAAAAAAAAAAAAAAAAAAAAAAAAAAAAAAAAAAAAAAAAAAAAAAAAAAAAAAAAAAAAAAAAAAAAAAAAAAAAAAAAAAAAAAAAAAAAAAAAAAAAAAAAAAAAAAAAAAAAAAAAAAAAAAAAAAAAAAAAAAAAAAAAAAAAAAAAAAAAAAAAAAAAAAAAAAAAAAAAAAAAAAAAAAAAAAAAAAAAAAAAAAAAAAAAAAAAAAAAAAAAAAAAAAAAAAAAAAAAAAAAAAAAAAAAAAAAAAAAAAAAAAAAAAAAAAAAAAAAAAAAAAAAAAAAAAAAAAAAAAAAAAAAAAAAAAAAAAAAAAAAAAAAAAAAAAAAAAAAAAAAAAAAAAAAAAAAAAAAAAAAAAAAAAAAAAAAAAAAAAAAAAAAAAAAAAAAAAAAAAAAAAAAAAAAAAAAAAAAAAAAAAAAAAAAAAAAAAAAAAAAAAAAAAAAAAAAAAAAAAAAAAAAAAAAAAAAAAAAAAAAAAAAAAAAAAAAAAAAAAAAAAAAAAAAAAAAAAAAAAAAAAAAAAAAAAAAAAAAAAAAAAAAAAAAAAAAAAAAAAAAAAAAAAAAAAAAAAAAAAAAAAAAAAAAAAAAAAAAAAAAAAAAAAAAAAAAAAAAAAAAAAAAAAAAAAAAAAAAAAAAAAAAAAAAAAAAAAAAAAAAAAAAAAAAAAAAAAAAAAAAAAAAAAAAAAAAAAAAAAAAAAAAAAAAAAAAAAAAAAAAAAAAAAAAAAAAAAAAAAAAAAAAAAAAAAAAAAAAAAAAAAAAAAAAAAAAAAAAAAAAAAAAAAAAAAAAAAAAAAAAAAAAAAAAAAAAAAAAAAAAAAAAAAAAAAAAAAAAAAAAAAAAAAAAAAAAAAAAAAAAAAAAAAAAAAAAAAAAAAAAAAAAAAAAAAAAAAAAAAAAAAAAAAAAAAAAAAAAAAAAAAAAAAAAAAAAAAAAAAAAAAAAAAAAAAAAAAAAAAAAAAAAAAAAAAAAAAAAAAAAAAAAAAAAAAAAAAAAAAAAAAAAAAAAAAAAAAAAAAAAAAAAAAAAAAAAAAAAAAAAAAAAAAAAAAAAAAAAAAAAAAAAAAAAAAAAAAAAAAAAAAAAAAAAAAAAAAAAAAAAAAAAAAAAAAAAAAAAAAAAAAAAAAAAAAAAAAAAAAAAAAAAAAAAAAAAAAAAAAAAAAAAAAAAAAAAAAAAAAAAAAAAAAAAAAAAAAAAAAAAAAAAAAAAAAAAAAAAAAAAAAAAAAAAAAAAAAAAAAAAAAAAAAAAAAAAAAAAAAAAAAAAAAAAAAAAAAAAAAAAAAAAAAAAAAAAAAAAAAAAAAAAAAAAAAAAAAAAAAAAAAAAAAAAAAAAAAAAAAAAAAAAAAAAAAAAAAAAAAAAAAAAAAAAAAAAAAAAAAAAAAAAAAAAAAAAAAAAAAAAAAAAAAAAAAAAAAAAAAAAAAAAAAAAAAAAAAAAAAAAAAAAAAAAAAAAAAAAAAAAAAAAAAAAAAAAAAAAAAAAAAAAAAAAAAAAAAAAAAAAAAAAAAAAAAAAAAAAAAAAAAAAAAAAAAAAAAAAAAAAAAAAAAAAAAAAAAAAAAAAAAAAAAAAAAAAAAAAAAAAAAAAAAAAAAAAAAAAAAAAAAAAAAAAAAAAAAAAAAAAAAAAAAAAAAAAAAAAAAAAAAAAAAAAAAAAAAAAAAAAAAAAAAAAAAAAAAAAAAAAAAAAAAAAAAAAAAAAAAAAAAAAAAAAAAAAAAAAAAAAAAAAAAAAAAAAAAAAAAAAAAAAAAAAAAAAAAAAAAAAAAAAAAAAAAAAAAAAAAAAAAAAAAAAAAAAAAAAAAAAAAAAAAAAAAAAAAAAAAAAAAAAAAAAAAAAAAAAAAAAAAAAAAAAAAAAAAAAAAAAAAAAAAAAAAAAAAAAAAAAAAAAAAAAAAAAAAAAAAAAAAAAAAAAAAAAAAAAAAAAAAAAAAAAAAAAAAAAAAAAAAAAAAAAAAAAAAAAAAAAAAAAAAAAAAAAAAAAAAAAAAAAAAAAAAAAAAAAAAAAAAAAAAAAAAAAAAAAAAAAAAAAAAAAAAAAAAAAAAAAAAAAAAAAAAAAAAAAAAAAAAAAAAAAAAAAAAAAAAAAAAAAAAAAAAAAAAAAAAAAAAAAAAAAAAAAAAAAAAAAAAAAAAAAAAAAAAAAAAAAAAAAAAAAAAAAAAAAAAAAAAAAAAAAAAAAAAAAAAAAAAAAAAAAAAAAAAAAAAAAAAAAAAAAAAAAAAAAAAAAAAAAAAAAAAAAAAAAAAAAAAAAAAAAAAAAAAAAAAAAAAAAAAAAAAAAAAAAAAAAAAAAAAAAAAAAAAAAAAAAAAAAAAAAAAAAAAAAAAAAAAAAAAAAAAAAAAAAAAAAAAAAAAAAAAAAAAAAAAAAAAAAAAAAAAAAAAAAAAAAAAAAAAAAAAAAAAAAAAAAAAAAAAAAAAAAAAAAAAAAAAAAAAAAAAAAAAAAAAAAAAAAAAAAAAAAAAAAAAAAAAAAAAAAAAAAAAAAAAAAAAAAAAAAAAAAAAAAAAAAAAAAAAAAAAAAAAAAAAAAAAAAAAAAAAAAAAAAAAAAAAAAAAAAAAAAAAAAAAAAAAAAAAAAAAAAAAAAAAAAAAAAAAAAAAAAAAAAAAAAAAAAAAAAAAAAAAAAAAAAAAAAAAAAAAAAAAAAAAAAAAAAAAAAAAAAAAAAAAAAAAAAAAAAAAAAAAAAAAAAAAAAAAAAAAAAAAAAAAAAAAAAAAAAAAAAAAAAAAAAAAAAAAAAAAAAAAAAAAAAAAAAAAAAAAAAAAAAAAAAAAAAAAAAAAAAAAAAAAAAAAAAAAAAAAAAAAAAAAAAAAAAAAAAAAAAAAAAAAAAAAAAAAAAAAAAAAAAAAAAAAAAAAAAAAAAAAAAAAAAAAAAAAAAAAAAAAAAAAAAAAAAAAAAAAAAAAAAAAAAAAAAAAAAAAAAAAAAAAAAAAAAAAAAAAAAAAAAAAAAAAAAAAAAAAAAAAAAAAAAAAAAAAAAAAAAAAAAAAAAAAAAAAAAAAAAAAAAAAAAAAAAAAAAAAAAAAAAAAAAAAAAAAAAAAAAAAAAAAAAAAAAAAAAAAAAAAAAAAAAAAAAAAAAAAAAAAAAAAAAAAAAAAAAAAAAAAAAAAAAAAAAAAAAAAAAAAAAAAAAAAAAAAAAAAAAAAAAAAAAAAAAAAAAAAAAAAAAAAAAAAAAAAAAAAAAAAAAAAAAAAAAAAAAAAAAAAAAAAAAAAAAAAAAAAAAAAAAAAAAAAAAAAAAAAAAAAAAAAAAAAAAAAAAAAAAAAAAAAAAAAAAAAAAAAAAAAAAAAAAAAAAAAAAAAAAAAAAAAAAAAAAAAAAAAAAAAAAAAAAAAAAAAAAAAAAAAAAAAAAAAAAAAAAAAAAAAAAAAAAAAAAAAAAAAAAAAAAAAAAAAAAAAAAAAAAAAAAAAAAAAAAAAAAAAAAAAAAAAAAAAAAAAAAAAAAAAAAAAAAAAAAAAAAAAAAAAAAAAAAAAAAAAAAAAAAAAAAAAAAAAAAAAAAAAAAAAAAAAAAAAAAAAAAAAAAAAAAAAAAAAAAAAAAAAAAAAAAAAAAAAAAAAAAAAAAAAAAAAAAAAAAAAAAAAAAAAAAAAAAAAAAAAAAAAAAAAAAAAAAAAAAAAAAAAAAAAAAAAAAAAAAAAAAAAAAAAAAAAAAAAAAAAAAAAAAAAAAAAAAAAAAAAAAAAAAAAAAAAAAAAAAAAAAAAAAAAAAAAAAAAAAAAAAAAAAAAAAAAAAAAAAAAAAAAAAAAAAAAAAAAAAAAAAAAAAAAAAAAAAAAAAAAAAAAAAAAAAAAAAAAAAAAAAAAAAAAAAAAAAAAAAAAAAAAAAAAAAAAAAAAAAAAAAAAAAAAAAAAAAAAAAAAAAAAAAAAAAAAAAAAAAAAAAAAAAAAAAAAAAAAAAAAAAAAAAAAAAAAAPZYQNfgONlvkDAnEt3+OqoBHSevIWP1arEKExE+ZpaqPAFUM2hy0KQ/wjk3B5ODbNzalGx7KPolnF5pN/TWDgfwa3o=</c2pa:manifest></metadata><defs>
<radialGradient id="bg" cx="50%" cy="42%" r="70%"><stop offset="0" stop-color="#fbf7ef"/><stop offset="1" stop-color="#ece2cf"/></radialGradient>
<linearGradient id="g" x1="0" y1="0" x2="1" y2="1"><stop offset="0" stop-color="#fff4c8"/><stop offset=".28" stop-color="#f0c45a"/><stop offset=".55" stop-color="#c38f2b"/><stop offset=".78" stop-color="#f6d77c"/><stop offset="1" stop-color="#9c6c19"/></linearGradient>
<linearGradient id="gv" x1="0" y1="0" x2="0" y2="1"><stop offset="0" stop-color="#fff0b8"/><stop offset=".45" stop-color="#e3b347"/><stop offset="1" stop-color="#a5741d"/></linearGradient>
<radialGradient id="coin" cx="40%" cy="35%" r="75%"><stop offset="0" stop-color="#fff3c2"/><stop offset=".5" stop-color="#e9bb4d"/><stop offset="1" stop-color="#a87520"/></radialGradient>
<radialGradient id="dia" cx="40%" cy="35%" r="70%"><stop offset="0" stop-color="#ffffff"/><stop offset=".6" stop-color="#e6eef5"/><stop offset="1" stop-color="#a9bccb"/></radialGradient>
<radialGradient id="ruby" cx="38%" cy="32%" r="70%"><stop offset="0" stop-color="#ff8aa0"/><stop offset=".45" stop-color="#c8143c"/><stop offset="1" stop-color="#6d0a1f"/></radialGradient>
<radialGradient id="emerald" cx="38%" cy="32%" r="70%"><stop offset="0" stop-color="#9df2c4"/><stop offset=".5" stop-color="#159a5e"/><stop offset="1" stop-color="#0a4f31"/></radialGradient>
<radialGradient id="pearl" cx="35%" cy="30%" r="70%"><stop offset="0" stop-color="#ffffff"/><stop offset=".7" stop-color="#f1ece2"/><stop offset="1" stop-color="#cfc6b6"/></radialGradient>
<radialGradient id="bead" cx="35%" cy="30%" r="70%"><stop offset="0" stop-color="#6b6b6b"/><stop offset="1" stop-color="#0d0d0d"/></radialGradient>
<filter id="sh" x="-50%" y="-50%" width="200%" height="200%"><feGaussianBlur stdDeviation="9"/></filter>
<filter id="ds" x="-20%" y="-20%" width="140%" height="140%"><feDropShadow dx="0" dy="4" stdDeviation="4" flood-color="#5a3d0a" flood-opacity=".28"/></filter>
</defs><rect width="400" height="400" fill="url(#bg)"/><ellipse cx="200" cy="370" rx="90" ry="10" fill="#6b4a12" opacity=".16" filter="url(#sh)"/><g filter="url(#ds)"><path d="M105.0 50.0 L105.1 59.9 L105.3 69.9 L105.7 79.8 L106.2 89.6 L106.9 99.4 L107.7 109.1 L108.7 118.7 L109.8 128.2 L111.0 137.6 L112.4 146.8 L113.9 155.9 L115.6 164.8 L117.4 173.6 L119.3 182.1 L121.4 190.4 L123.6 198.6 L125.9 206.4 L128.3 214.1 L130.9 221.4 L133.5 228.5 L136.2 235.3 L139.1 241.9 L142.0 248.1 L145.1 254.0 L148.2 259.6 L151.4 264.8 L154.7 269.7 L158.1 274.3 L161.5 278.5 L165.0 282.4 L168.5 285.9 L172.1 289.0 L175.7 291.7 L179.4 294.0 L183.1 296.0 L186.8 297.6 L190.6 298.8 L194.3 299.6 L198.1 300.0 L201.9 300.0 L205.7 299.6 L209.4 298.8 L213.2 297.6 L216.9 296.0 L220.6 294.0 L224.3 291.7 L227.9 289.0 L231.5 285.9 L235.0 282.4 L238.5 278.5 L241.9 274.3 L245.3 269.7 L248.6 264.8 L251.8 259.6 L254.9 254.0 L258.0 248.1 L260.9 241.9 L263.8 235.3 L266.5 228.5 L269.1 221.4 L271.7 214.1 L274.1 206.4 L276.4 198.6 L278.6 190.4 L280.7 182.1 L282.6 173.6 L284.4 164.8 L286.1 155.9 L287.6 146.8 L289.0 137.6 L290.2 128.2 L291.3 118.7 L292.3 109.1 L293.1 99.4 L293.8 89.6 L294.3 79.8 L294.7 69.9 L294.9 59.9 L295.0 50.0" fill="none" stroke="#8a5f14" stroke-width="12"/><path d="M105.0 50.0 L105.1 59.9 L105.3 69.9 L105.7 79.8 L106.2 89.6 L106.9 99.4 L107.7 109.1 L108.7 118.7 L109.8 128.2 L111.0 137.6 L112.4 146.8 L113.9 155.9 L115.6 164.8 L117.4 173.6 L119.3 182.1 L121.4 190.4 L123.6 198.6 L125.9 206.4 L128.3 214.1 L130.9 221.4 L133.5 228.5 L136.2 235.3 L139.1 241.9 L142.0 248.1 L145.1 254.0 L148.2 259.6 L151.4 264.8 L154.7 269.7 L158.1 274.3 L161.5 278.5 L165.0 282.4 L168.5 285.9 L172.1 289.0 L175.7 291.7 L179.4 294.0 L183.1 296.0 L186.8 297.6 L190.6 298.8 L194.3 299.6 L198.1 300.0 L201.9 300.0 L205.7 299.6 L209.4 298.8 L213.2 297.6 L216.9 296.0 L220.6 294.0 L224.3 291.7 L227.9 289.0 L231.5 285.9 L235.0 282.4 L238.5 278.5 L241.9 274.3 L245.3 269.7 L248.6 264.8 L251.8 259.6 L254.9 254.0 L258.0 248.1 L260.9 241.9 L263.8 235.3 L266.5 228.5 L269.1 221.4 L271.7 214.1 L274.1 206.4 L276.4 198.6 L278.6 190.4 L280.7 182.1 L282.6 173.6 L284.4 164.8 L286.1 155.9 L287.6 146.8 L289.0 137.6 L290.2 128.2 L291.3 118.7 L292.3 109.1 L293.1 99.4 L293.8 89.6 L294.3 79.8 L294.7 69.9 L294.9 59.9 L295.0 50.0" fill="none" stroke="url(#g)" stroke-width="9"/><path d="M105.0 50.0 L105.1 59.9 L105.3 69.9 L105.7 79.8 L106.2 89.6 L106.9 99.4 L107.7 109.1 L108.7 118.7 L109.8 128.2 L111.0 137.6 L112.4 146.8 L113.9 155.9 L115.6 164.8 L117.4 173.6 L119.3 182.1 L121.4 190.4 L123.6 198.6 L125.9 206.4 L128.3 214.1 L130.9 221.4 L133.5 228.5 L136.2 235.3 L139.1 241.9 L142.0 248.1 L145.1 254.0 L148.2 259.6 L151.4 264.8 L154.7 269.7 L158.1 274.3 L161.5 278.5 L165.0 282.4 L168.5 285.9 L172.1 289.0 L175.7 291.7 L179.4 294.0 L183.1 296.0 L186.8 297.6 L190.6 298.8 L194.3 299.6 L198.1 300.0 L201.9 300.0 L205.7 299.6 L209.4 298.8 L213.2 297.6 L216.9 296.0 L220.6 294.0 L224.3 291.7 L227.9 289.0 L231.5 285.9 L235.0 282.4 L238.5 278.5 L241.9 274.3 L245.3 269.7 L248.6 264.8 L251.8 259.6 L254.9 254.0 L258.0 248.1 L260.9 241.9 L263.8 235.3 L266.5 228.5 L269.1 221.4 L271.7 214.1 L274.1 206.4 L276.4 198.6 L278.6 190.4 L280.7 182.1 L282.6 173.6 L284.4 164.8 L286.1 155.9 L287.6 146.8 L289.0 137.6 L290.2 128.2 L291.3 118.7 L292.3 109.1 L293.1 99.4 L293.8 89.6 L294.3 79.8 L294.7 69.9 L294.9 59.9 L295.0 50.0" fill="none" stroke="#9c6c19" stroke-width="9" stroke-dasharray="2 10" /><circle cx="108.2" cy="123.7" r="4" fill="url(#ruby)" /><ellipse cx="108.2" cy="132.7" rx="3.5" ry="5" fill="url(#pearl)"/><circle cx="112.2" cy="154.7" r="4" fill="url(#ruby)" /><ellipse cx="112.2" cy="163.7" rx="3.5" ry="5" fill="url(#pearl)"/><circle cx="117.7" cy="184.0" r="4" fill="url(#ruby)" /><ellipse cx="117.7" cy="193.0" rx="3.5" ry="5" fill="url(#pearl)"/><circle cx="124.6" cy="211.2" r="4" fill="url(#ruby)" /><ellipse cx="124.6" cy="220.2" rx="3.5" ry="5" fill="url(#pearl)"/><circle cx="132.8" cy="235.8" r="4" fill="url(#ruby)" /><ellipse cx="132.8" cy="244.8" rx="3.5" ry="5" fill="url(#pearl)"/><circle cx="142.2" cy="257.3" r="4" fill="url(#ruby)" /><ellipse cx="142.2" cy="266.3" rx="3.5" ry="5" fill="url(#pearl)"/><circle cx="152.5" cy="275.5" r="4" fill="url(#ruby)" /><ellipse cx="152.5" cy="284.5" rx="3.5" ry="5" fill="url(#pearl)"/><circle cx="163.6" cy="290.0" r="4" fill="url(#ruby)" /><ellipse cx="163.6" cy="299.0" rx="3.5" ry="5" fill="url(#pearl)"/><circle cx="175.4" cy="300.5" r="4" fill="url(#ruby)" /><ellipse cx="175.4" cy="309.5" rx="3.5" ry="5" fill="url(#pearl)"/><circle cx="187.6" cy="306.9" r="4" fill="url(#ruby)" /><ellipse cx="187.6" cy="315.9" rx="3.5" ry="5" fill="url(#pearl)"/><circle cx="212.4" cy="306.9" r="4" fill="url(#ruby)" /><ellipse cx="212.4" cy="315.9" rx="3.5" ry="5" fill="url(#pearl)"/><circle cx="224.6" cy="300.5" r="4" fill="url(#ruby)" /><ellipse cx="224.6" cy="309.5" rx="3.5" ry="5" fill="url(#pearl)"/><circle cx="236.4" cy="290.0" r="4" fill="url(#ruby)" /><ellipse cx="236.4" cy="299.0" rx="3.5" ry="5" fill="url(#pearl)"/><circle cx="247.5" cy="275.5" r="4" fill="url(#ruby)" /><ellipse cx="247.5" cy="284.5" rx="3.5" ry="5" fill="url(#pearl)"/><circle cx="257.8" cy="257.3" r="4" fill="url(#ruby)" /><ellipse cx="257.8" cy="266.3" rx="3.5" ry="5" fill="url(#pearl)"/><circle cx="267.2" cy="235.8" r="4" fill="url(#ruby)" /><ellipse cx="267.2" cy="244.8" rx="3.5" ry="5" fill="url(#pearl)"/><circle cx="275.4" cy="211.2" r="4" fill="url(#ruby)" /><ellipse cx="275.4" cy="220.2" rx="3.5" ry="5" fill="url(#pearl)"/><circle cx="282.3" cy="184.0" r="4" fill="url(#ruby)" /><ellipse cx="282.3" cy="193.0" rx="3.5" ry="5" fill="url(#pearl)"/><circle cx="287.8" cy="154.7" r="4" fill="url(#ruby)" /><ellipse cx="287.8" cy="163.7" rx="3.5" ry="5" fill="url(#pearl)"/><circle cx="291.8" cy="123.7" r="4" fill="url(#ruby)" /><ellipse cx="291.8" cy="132.7" rx="3.5" ry="5" fill="url(#pearl)"/><path d="M200 296 L232 328 L200 372 L168 328Z" fill="url(#g)" stroke="#8a5f14" stroke-width="2.5"/><circle cx="200" cy="330" r="14.5" fill="url(#g)"/><circle cx="200" cy="330" r="12" fill="url(#emerald)"/><circle cx="195.8" cy="325.8" r="3.0" fill="#fff" opacity=".8"/></g></svg>